<svg xmlns="http://www.w3.org/2000/svg" xmlns:xlink="http://www.w3.org/1999/xlink" width="24" height="24" viewBox="0 0 24 24">
    <defs>
        <path id="prefix__a" d="M12.432 16c.423 0 .79-.146 1.101-.439.311-.292.467-.646.467-1.06V5.358c0-.415-.156-.774-.467-1.08-.31-.304-.678-.456-1.101-.456h-1.53c0-.695-.175-1.335-.523-1.92C10.03 1.317 9.557.853 8.96.512 8.363.171 7.71 0 7 0S5.637.17 5.04.512c-.597.341-1.07.805-1.419 1.39-.348.585-.522 1.225-.522 1.92H1.568c-.423 0-.79.152-1.101.457C.156 4.584 0 4.943 0 5.358V14.5c0 .414.156.768.467 1.06.31.293.678.439 1.101.439h10.864zM9.333 3.822H4.667c0-.403.105-.78.317-1.134.212-.354.498-.634.859-.841.36-.207.746-.311 1.157-.311.41 0 .796.104 1.157.31.361.208.647.488.859.842.212.354.317.731.317 1.134zM7 9.142c-.71 0-1.363-.167-1.96-.502-.597-.335-1.07-.795-1.419-1.38-.348-.586-.522-1.22-.522-1.902h1.568c0 .402.105.78.317 1.133.212.354.498.634.859.842.36.207.746.31 1.157.31.41 0 .796-.103 1.157-.31.361-.208.647-.488.859-.842.212-.353.317-.731.317-1.133h1.568c0 .682-.174 1.316-.522 1.901-.349.586-.822 1.046-1.419 1.381-.597.335-1.25.503-1.96.503z"/>
    </defs>
    <g fill="none" fill-rule="evenodd" transform="translate(5 4)">
        <mask id="prefix__b" fill="#fff">
            <use xlink:href="#prefix__a"/>
        </mask>
        <use fill="#000" fill-rule="nonzero" xlink:href="#prefix__a"/>
        <g fill="#1F1F1F" mask="url(#prefix__b)">
            <path d="M0 0H24V24H0z" transform="translate(-5 -4)"/>
        </g>
    </g>
</svg>
