<svg id="Layer_1" data-name="Layer 1" xmlns="http://www.w3.org/2000/svg" viewBox="0 0 720 260"><defs><style>.cls-1{fill:#44d62c;}</style></defs><path class="cls-1" d="M717.34,2.55H542.56l13.18,13.18H82.87L69.69,2.55H1.83V117.79h0V257.45H177.44l-13.19-13.18H637.13l13.18,13.18h67.86V2.55ZM593,4.2l10.26,10.26H716.52V43.77L700,27.26H689.38l17,17h-10l-17-17H668.76l17,17h-10l-17-17H648.14l17,17h-10l-17-17H627.52l17,17H613l-40-40ZM127,255.8l-10.26-10.26H3.48V216.23L20,232.74H30.62l-17-17h10l17,17H51.24l-17-17h10l17,17H71.86l-17-17h10l17,17H92.48l-17-17H107l40,40ZM716.52,80.11V255.8H651l-11.53-11.53H684L707.22,221l-1.17-1.17-22.78,22.78H162.61l-10.47-10.47L151,233.32l22.49,22.48H149.38l-41.44-41.44-.25-.24H3.48V153.89h0V4.2H69L80.54,15.73H36.05L12.78,39,14,40.16,36.73,17.38H557.39l10.47,10.47L569,26.68,546.54,4.2h24.08l41.44,41.44.25.24H716.52Z"/><polygon class="cls-1" points="568.17 28.09 594.69 28.09 593 26.44 567.17 26.44 568.17 28.09"/><polyline class="cls-1" points="124.47 231.76 125.93 233.41 153.41 233.41 151.64 231.76"/><path class="cls-1" d="M717.34,2.55H542.56l13.18,13.18H82.87L69.69,2.55H1.83V117.79h0V257.45H177.44l-13.19-13.18H637.13l13.18,13.18h67.86V2.55ZM593,4.2l10.26,10.26H716.52V43.77L700,27.26H689.38l17,17h-10l-17-17H668.76l17,17h-10l-17-17H648.14l17,17h-10l-17-17H627.52l17,17H613l-40-40ZM127,255.8l-10.26-10.26H3.48V216.23L20,232.74H30.62l-17-17h10l17,17H51.24l-17-17h10l17,17H71.86l-17-17h10l17,17H92.48l-17-17H107l40,40ZM716.52,80.11V255.8H651l-11.53-11.53H684L707.22,221l-1.17-1.17-22.78,22.78H162.61l-10.47-10.47L151,233.32l22.49,22.48H149.38l-41.44-41.44-.25-.24H3.48V153.89h0V4.2H69L80.54,15.73H36.05L12.78,39,14,40.16,36.73,17.38H557.39l10.47,10.47L569,26.68,546.54,4.2h24.08l41.44,41.44.25.24H716.52Z"/><polygon class="cls-1" points="568.17 28.09 594.69 28.09 593 26.44 567.17 26.44 568.17 28.09"/><polyline class="cls-1" points="124.47 231.76 125.93 233.41 153.41 233.41 151.64 231.76"/><polygon points="166.72 232.62 155.75 221.76 129.47 221.76 111.84 204.12 23.95 204.12 23.95 44.3 40.87 27.38 553.27 27.38 564.04 38.09 590.37 38.09 608.16 55.88 696.05 55.88 696.05 215.7 679.13 232.62 166.72 232.62"/><rect class="cls-1" x="12.8" y="38.94" width="1.65" height="28.66"/><rect class="cls-1" x="705.62" y="192.18" width="1.65" height="28.66"/></svg>