<svg id="Layer_1" data-name="Layer 1" xmlns="http://www.w3.org/2000/svg" viewBox="0 0 500 39.18"><defs><style>.cls-1{fill:#fff;}.cls-2{fill:#19b14b;}</style></defs><path class="cls-1" d="M466.64,21.55v17h-4.29V.08l.73,0h16.61a9.46,9.46,0,0,1,9.54,9.6,21.25,21.25,0,0,1-.32,4.66,9.3,9.3,0,0,1-9,7.14l-.53,0,9.84,17.09c-1.66,0-3.18,0-4.71,0-.18,0-.42-.31-.54-.52q-3.7-6.37-7.37-12.77c-.66-1.13-1.3-2.27-2-3.4a.78.78,0,0,0-.54-.39c-2.43,0-4.87,0-7.3,0,0,0-.08,0-.19.09m0-4.38h13.11a5.14,5.14,0,0,0,5.11-4.57A19.46,19.46,0,0,0,485,9.36a5.17,5.17,0,0,0-5.34-5c-4.05,0-8.09,0-12.14,0h-.8Z" transform="translate(0 0)"/><path class="cls-1" d="M264.59,21.48l9.81,17c-.25,0-.42.06-.59.06a15.62,15.62,0,0,0-2.27,0c-1.6.27-2.39-.45-3.15-1.83-2.74-5-5.63-9.85-8.45-14.77a.91.91,0,0,0-.91-.55c-2.38,0-4.77,0-7.25,0V38.52h-4.25V.05h17.22a9.53,9.53,0,0,1,9.68,9.57,15.83,15.83,0,0,1-.52,5.39,9.47,9.47,0,0,1-8.68,6.43l-.64,0m-12.83-4.36.31,0c4.36,0,8.73,0,13.09,0a5,5,0,0,0,4.74-3.83,19.73,19.73,0,0,0,.19-3.85A5.13,5.13,0,0,0,265,4.36c-4.16,0-8.32,0-12.48,0-.57,0-.74.16-.73.73,0,3.78,0,7.55,0,11.33Z" transform="translate(0 0)"/><path class="cls-1" d="M374.59,4.34H354.93V.1H382L362.3,34.27H382c-.83,1.44-1.57,2.77-2.37,4.07-.1.16-.48.21-.73.21h-24L374.59,4.34" transform="translate(0 0)"/><path class="cls-1" d="M314.59,0c5.23,13,10.38,25.72,15.55,38.56-1.5,0-2.87,0-4.25,0-.47,0-.5-.33-.61-.61l-6.54-16.21c-1.36-3.36-2.71-6.72-4.12-10.2-.13.27-.23.43-.3.61Q309.15,25,304,37.82a1,1,0,0,1-1.15.76c-1.21-.06-2.43,0-3.8,0C304.22,25.72,309.37,13,314.59,0" transform="translate(0 0)"/><path class="cls-1" d="M435.53.1c-.79,1.37-1.52,2.67-2.28,4a1.05,1.05,0,0,1-.55.3,2,2,0,0,1-.54,0H408.68V.1Z" transform="translate(0 0)"/><path class="cls-1" d="M408.66,21.44V17.21h26.87c-.79,1.38-1.54,2.71-2.34,4-.1.16-.47.22-.71.22H408.66Z" transform="translate(0 0)"/><path class="cls-1" d="M408.65,38.56V34.35h26.86c-.78,1.35-1.53,2.68-2.33,4-.1.17-.47.22-.72.22-4.73,0-9.46,0-14.19,0h-9.62Z" transform="translate(0 0)"/><path class="cls-1" d="M496.9,1.14c0,.77,0,1.54,0,2.31,0,.14-.2.27-.31.41-.1-.12-.28-.24-.29-.36,0-1.12,0-2.24,0-3.41h1.07c.25.84.51,1.71.81,2.75.23-.77.4-1.39.58-2C499,0,499,0,500,.12V3.8c-.45.15-.63,0-.62-.43a8.84,8.84,0,0,0-.14-2.1c-.19.64-.37,1.3-.61,1.93-.07.2-.32.35-.49.53-.15-.19-.38-.35-.45-.56-.25-.68-.45-1.37-.66-2.06l-.13,0" transform="translate(0 0)"/><path class="cls-1" d="M493.6.81c-.43-.26-1.16.19-1-.76.75,0,1.5,0,2.25,0,.15,0,.3.18.44.28a2.1,2.1,0,0,1-.46.34,2.06,2.06,0,0,1-.58,0V3.77c-.46.18-.67.09-.67-.41,0-.86,0-1.73,0-2.55" transform="translate(0 0)"/><polygon class="cls-1" points="150.37 39.15 145.5 39.16 145.5 8.52 150.37 8.54 150.37 39.15"/><polygon class="cls-1" points="136.18 39.16 140.96 39.16 140.95 8.54 133.51 8.53 113.94 34.64 94.18 8.55 86.83 8.54 86.83 39.15 91.62 39.16 91.62 13.24 111.37 39.16 116.54 39.17 136.18 13.17 136.18 39.16"/><polygon class="cls-1" points="4.76 4.86 4.76 8.54 20.96 8.55 20.96 39.16 16.17 39.16 16.16 13.42 0 13.41 0.02 0.08 150.37 0.06 150.37 4.86 4.76 4.86"/><path class="cls-1" d="M30.09,13.39l0,25.78H25.23V8.55h21V32.39A2.39,2.39,0,0,0,46.65,34a3.21,3.21,0,0,0,1.61.64H76a3,3,0,0,0,2-.75,2.39,2.39,0,0,0,.42-1.46l0-23.88,4.71,0V32.36s.22,3.17-1.7,5a7.09,7.09,0,0,1-4.76,1.78H47.39a5.34,5.34,0,0,1-4-1.42,6.78,6.78,0,0,1-1.76-4.3l0-20Z" transform="translate(0 0)"/><rect class="cls-2" x="196.54" y="0.14" width="4.79" height="38.47"/></svg>