<?xml version="1.0" encoding="UTF-8"?>
<svg width="43px" height="65px" viewBox="0 0 43 65" version="1.1" xmlns="http://www.w3.org/2000/svg" xmlns:xlink="http://www.w3.org/1999/xlink">
    <!-- Generator: Sketch 44.1 (41455) - http://www.bohemiancoding.com/sketch -->
    <title>map-localization copy 3</title>
    <desc>Created with Sketch.</desc>
    <defs></defs>
    <g id="Tumi-Icon" stroke="none" stroke-width="1" fill="none" fill-rule="evenodd">
        <g id="Mobile-Copy" transform="translate(-98.000000, -179.000000)" fill-rule="nonzero" fill="#555555">
            <g id="map-localization-copy-3" transform="translate(98.000000, 179.000000)">
                <path d="M36.7175325,5.6488251 C32.5292208,1.88289939 27.4567565,0 21.5,0 C15.5432435,0 10.4707792,1.88289939 6.28246753,5.6488251 C2.09415584,9.41475081 0,13.9633879 0,19.2948633 C0,22.5106315 1.79162013,27.8845048 5.375,35.4162293 C8.95837987,42.9480807 12.5416201,49.8028348 16.125,55.9804914 C19.7083799,62.1581481 21.5,65.1625614 21.5,64.9932236 C22.0584416,64.0622465 22.8262987,62.7928476 23.8035714,61.1850269 C24.7808442,59.5772063 26.5026591,56.551721 28.9691558,52.1088248 C31.4356526,47.6659287 33.5996136,43.5827802 35.461039,39.8591254 C37.3226039,36.1357246 39.0444188,32.285003 40.6266234,28.3075954 C42.2088279,24.3301879 43,21.3259015 43,19.2948633 C43,13.9633879 40.9058442,9.41475081 36.7175325,5.6488251 Z M27.9054054,26.7224025 C26.0388054,28.4520747 23.8054054,29.3170034 21.2054054,29.3170034 C18.6054054,29.3170034 16.3720054,28.4520747 14.5054054,26.7224025 C12.6388054,24.9927303 11.7054054,22.9231654 11.7054054,20.5138931 C11.7054054,18.1046207 12.6388054,16.0660057 14.5054054,14.398048 C16.3720054,12.7300902 18.6054054,11.8961113 21.2054054,11.8961113 C23.8054054,11.8961113 26.0388054,12.7300902 27.9054054,14.398048 C29.7720054,16.0660057 30.7054054,18.1046207 30.7054054,20.5138931 C30.7054054,22.9231654 29.7720054,24.9927303 27.9054054,26.7224025 Z" id="Shape"></path>
            </g>
        </g>
    </g>
</svg>